<svg xmlns="http://www.w3.org/2000/svg" width="72" height="72" viewBox="0 0 72 72">
  <g fill="none">
    <path fill="#082538" d="M72,36 C72,55.882251 55.882251,72 36,72 C16.117749,72 0,55.882251 0,36 C0,16.117749 16.117749,0 36,0 C45.5479709,0 54.7050478,3.79208225 61.4564828,10.5435172 C68.2079178,17.2949522 72,26.4520291 72,36 Z"/>
    <path fill="#FFF" d="M60.4031782,36.13807 C61.007381,35.2642351 61.6118308,34.3602765 62.2160337,33.485454 L63.964691,33.485454 L63.964691,31.0101235 L60.7160204,31.0101235 C60.060706,31.9508726 59.4053916,32.7985344 58.7500772,33.7392834 C58.1066147,32.7985344 57.4629053,31.9508726 56.8194429,31.0101235 L44.5724213,31.0101235 L44.5724213,38.7356238 L43.9551319,38.7430312 L43.9551319,31.0101235 L40.6758437,31.0101235 L37.4113705,37.0427693 L34.1807247,31.0101235 L30.8720535,31.0101235 L30.902918,32.9298936 C30.8942865,32.9032599 30.8839777,32.8771994 30.8720535,32.8518682 L30.8720535,32.8518682 C30.5127068,32.2229999 29.9681027,31.7203017 29.3125336,31.4123493 C28.6630984,31.1464723 27.967336,31.0121877 27.265602,31.0172841 C25.1475586,31.0150619 20.7376432,31.0172841 20.7376432,31.0172841 L20.7376432,40.7161351 L20.7198653,40.7225549 C20.7198653,40.6677396 16.4563709,31 16.4563709,31 L12.2321361,31 C12.2321361,31 8.05703754,41.2346582 8,41.3704618 L11.1928677,41.3704618 C11.2365718,41.2833006 11.7049709,40.147735 11.7439836,40.0768702 L17.1435374,40.0768702 C17.3541566,40.4857627 17.5097135,40.9326802 17.7190981,41.3662643 L24.0038448,41.3662643 L24.0038448,37.4736373 L24.1663154,37.4736373 L27.4749866,37.4736373 C28.7883315,37.4736373 29.9505639,36.9511636 30.6777308,35.9141174 C30.7514908,35.8119099 30.8165742,35.703713 30.8723005,35.5906578 C30.8723005,35.6400409 30.905881,41.3684865 30.905881,41.3684865 L34.2029471,41.3684865 C34.2029471,41.3684865 34.1851692,37.6482068 34.1851692,35.7837459 L37.4165557,41.3442888 L40.6758437,35.8237462 C40.6758437,35.8237462 40.7047328,41.3487332 40.7220169,41.3712026 L56.8090724,41.3712026 L58.7510648,38.5141403 L60.7328107,41.3689803 L64,41.3689803 L60.4031782,36.13807 Z M13.0351061,36.8373354 L14.3780809,33.6740977 L15.7205619,36.8373354 L13.0351061,36.8373354 Z M28.0986958,34.7491689 C28.0768484,34.7854084 28.0513669,34.8193285 28.0226457,34.8504043 C27.7925763,35.04133 27.5020826,35.1441713 27.2031323,35.1405303 C26.8189314,35.1817653 26.0478135,35.1837406 26.0478135,35.1837406 L24.0097708,35.1852221 L24.0097708,33.5461953 L25.9865784,33.5461953 C25.9865784,33.5461953 26.7273256,33.5476768 27.0942425,33.5854549 C27.4289672,33.5896324 27.7546598,33.6946113 28.0288186,33.8866921 C28.2523751,34.1218277 28.281484,34.4811115 28.0986958,34.7491689 L28.0986958,34.7491689 Z M54.0715174,40.672431 L54.0715174,38.7464881 L47.8245487,38.7464881 L47.8245487,37.4445013 L50.693216,37.4445013 L50.693216,34.8518858 L47.8368945,34.8518858 C47.8652898,34.8691699 47.8262771,33.5513805 47.8262771,33.5513805 L54.0947275,33.5513805 L54.0947275,31.618524 C54.3018898,31.9192674 56.9982099,36.1388107 57.0120371,36.1741197 L54.0715174,40.672431 Z"/>
  </g>
</svg>
